<?xml version="1.0" encoding="UTF-8" standalone="no" ?>
<svg width="256px" height="256px" viewBox="0 0 256 256" version="1.1" xmlns="http://www.w3.org/2000/svg" xmlns:xlink="http://www.w3.org/1999/xlink" preserveAspectRatio="xMidYMid">
    <defs>
        <linearGradient x1="0%" y1="0%" x2="100%" y2="100%" id="spacy-gradient">
            <stop stop-color="#1E3A8A" offset="0%"></stop>
            <stop stop-color="#3B82F6" offset="100%"></stop>
        </linearGradient>
    </defs>
    <g fill="none" fill-rule="evenodd">
        <circle cx="128" cy="128" r="128" fill="url(#spacy-gradient)"></circle>
        <path d="M85,120 C85,95 105,75 128,75 C151,75 171,95 171,120 C171,145 151,165 128,165 C105,165 85,145 85,120 Z" fill="#FFFFFF"></path>
        <path d="M110,110 C110,100 120,90 128,90 C136,90 146,100 146,110 C146,120 136,130 128,130 C120,130 110,120 110,110 Z" fill="#3B82F6"></path>
        <path d="M128,80 L128,170 M100,110 L156,110 M100,150 L156,150" stroke="#1E3A8A" stroke-width="2" stroke-linecap="round"></path>
    </g>
</svg>
